<?xml version="1.0" encoding="UTF-8" standalone="no"?>
<!DOCTYPE svg PUBLIC "-//W3C//DTD SVG 1.1//EN"
 "http://www.w3.org/Graphics/SVG/1.1/DTD/svg11.dtd">
<!-- Generated by graphviz version 2.43.0 (0)
 -->
<!-- Title: IoTDemoConstrained Pages: 1 -->
<svg width="737pt" height="302pt"
 viewBox="0.00 0.00 737.00 302.00" xmlns="http://www.w3.org/2000/svg" xmlns:xlink="http://www.w3.org/1999/xlink">
<g id="graph0" class="graph" transform="scale(1 1) rotate(0) translate(4 298)">
<title>IoTDemoConstrained</title>
<!-- Devices -->
<g id="node1" class="node">
<title>Devices</title>
<path fill="#ffffff" stroke="#111827" d="M104,-207C104,-207 12,-207 12,-207 6,-207 0,-201 0,-195 0,-195 0,-183 0,-183 0,-177 6,-171 12,-171 12,-171 104,-171 104,-171 110,-171 116,-177 116,-183 116,-183 116,-195 116,-195 116,-201 110,-207 104,-207"/>
<text text-anchor="middle" x="58" y="-192.2" font-family="Inter" font-size="11.00">Devices</text>
<text text-anchor="middle" x="58" y="-180.2" font-family="Inter" font-size="11.00">(Sensors/Actuators)</text>
</g>
<!-- EdgeHub -->
<g id="node2" class="node">
<title>EdgeHub</title>
<path fill="#ffffff" stroke="#111827" d="M328,-207C328,-207 211,-207 211,-207 205,-207 199,-201 199,-195 199,-195 199,-183 199,-183 199,-177 205,-171 211,-171 211,-171 328,-171 328,-171 334,-171 340,-177 340,-183 340,-183 340,-195 340,-195 340,-201 334,-207 328,-207"/>
<text text-anchor="middle" x="269.5" y="-192.2" font-family="Inter" font-size="11.00">Edge Hub</text>
<text text-anchor="middle" x="269.5" y="-180.2" font-family="Inter" font-size="11.00">Aggregation/Translation</text>
</g>
<!-- Devices&#45;&gt;EdgeHub -->
<g id="edge1" class="edge">
<title>Devices&#45;&gt;EdgeHub</title>
<path fill="none" stroke="#374151" d="M116.25,-189C138.51,-189 164.4,-189 188.45,-189"/>
<polygon fill="#374151" stroke="#374151" points="188.63,-192.5 198.63,-189 188.63,-185.5 188.63,-192.5"/>
<text text-anchor="middle" x="157.5" y="-192" font-family="Inter" font-size="10.00">telemetry</text>
</g>
<!-- EdgeHub&#45;&gt;Devices -->
<g id="edge11" class="edge">
<title>EdgeHub&#45;&gt;Devices</title>
<path fill="none" stroke="#374151" d="M198.74,-173.85C177.92,-171.05 155.05,-169.64 134,-172 131.45,-172.29 128.85,-172.62 126.24,-173.01"/>
<polygon fill="#374151" stroke="#374151" points="125.4,-169.6 116.1,-174.68 126.54,-176.5 125.4,-169.6"/>
<text text-anchor="middle" x="157.5" y="-175" font-family="Inter" font-size="10.00">actuate</text>
</g>
<!-- Backend -->
<g id="node3" class="node">
<title>Backend</title>
<path fill="#ffffff" stroke="#111827" d="M560,-208C560,-208 462,-208 462,-208 456,-208 450,-202 450,-196 450,-196 450,-184 450,-184 450,-178 456,-172 462,-172 462,-172 560,-172 560,-172 566,-172 572,-178 572,-184 572,-184 572,-196 572,-196 572,-202 566,-208 560,-208"/>
<text text-anchor="middle" x="511" y="-193.2" font-family="Inter" font-size="11.00">Backend / API</text>
<text text-anchor="middle" x="511" y="-181.2" font-family="Inter" font-size="11.00">Auth + Control Plane</text>
</g>
<!-- EdgeHub&#45;&gt;Backend -->
<g id="edge2" class="edge">
<title>EdgeHub&#45;&gt;Backend</title>
<path fill="none" stroke="#374151" d="M340.1,-189.29C371.5,-189.42 408.52,-189.58 439.98,-189.71"/>
<polygon fill="#374151" stroke="#374151" points="439.97,-193.21 449.98,-189.75 440,-186.21 439.97,-193.21"/>
<text text-anchor="middle" x="395" y="-192" font-family="Inter" font-size="10.00">publish/forward</text>
</g>
<!-- Backend&#45;&gt;EdgeHub -->
<g id="edge10" class="edge">
<title>Backend&#45;&gt;EdgeHub</title>
<path fill="none" stroke="#374151" d="M449.77,-174.68C443.8,-173.59 437.8,-172.66 432,-172 399.32,-168.28 390.74,-168.85 358,-172 355.44,-172.25 352.84,-172.53 350.22,-172.85"/>
<polygon fill="#374151" stroke="#374151" points="349.49,-169.42 340.05,-174.24 350.44,-176.36 349.49,-169.42"/>
<text text-anchor="middle" x="395" y="-175" font-family="Inter" font-size="10.00">commands</text>
</g>
<!-- UI -->
<g id="node4" class="node">
<title>UI</title>
<path fill="#ffffff" stroke="#111827" d="M717,-208C717,-208 642,-208 642,-208 636,-208 630,-202 630,-196 630,-196 630,-184 630,-184 630,-178 636,-172 642,-172 642,-172 717,-172 717,-172 723,-172 729,-178 729,-184 729,-184 729,-196 729,-196 729,-202 723,-208 717,-208"/>
<text text-anchor="middle" x="679.5" y="-187.2" font-family="Inter" font-size="11.00">Web / Mobile UI</text>
</g>
<!-- Backend&#45;&gt;UI -->
<g id="edge3" class="edge">
<title>Backend&#45;&gt;UI</title>
<path fill="none" stroke="#374151" d="M572.11,-190C587.55,-190 604.14,-190 619.52,-190"/>
<polygon fill="#374151" stroke="#374151" points="619.95,-193.5 629.95,-190 619.95,-186.5 619.95,-193.5"/>
<text text-anchor="middle" x="601" y="-193" font-family="Inter" font-size="10.00">APIs</text>
</g>
<!-- DB -->
<g id="node5" class="node">
<title>DB</title>
<path fill="#ffffff" stroke="#111827" d="M551,-122C551,-122 471,-122 471,-122 465,-122 459,-116 459,-110 459,-110 459,-98 459,-98 459,-92 465,-86 471,-86 471,-86 551,-86 551,-86 557,-86 563,-92 563,-98 563,-98 563,-110 563,-110 563,-116 557,-122 551,-122"/>
<text text-anchor="middle" x="511" y="-107.2" font-family="Inter" font-size="11.00">Database</text>
<text text-anchor="middle" x="511" y="-95.2" font-family="Inter" font-size="11.00">Telemetry + State</text>
</g>
<!-- Backend&#45;&gt;DB -->
<g id="edge4" class="edge">
<title>Backend&#45;&gt;DB</title>
<path fill="none" stroke="#374151" d="M511,-171.79C511,-160.39 511,-145.47 511,-132.52"/>
<polygon fill="#374151" stroke="#374151" points="514.5,-132.24 511,-122.24 507.5,-132.24 514.5,-132.24"/>
<text text-anchor="middle" x="502.5" y="-144.5" font-family="Inter" font-size="10.00">store</text>
</g>
<!-- Backend&#45;&gt;DB -->
<!-- Obs -->
<g id="node6" class="node">
<title>Obs</title>
<path fill="#ffffff" stroke="#111827" d="M558.5,-36C558.5,-36 463.5,-36 463.5,-36 457.5,-36 451.5,-30 451.5,-24 451.5,-24 451.5,-12 451.5,-12 451.5,-6 457.5,0 463.5,0 463.5,0 558.5,0 558.5,0 564.5,0 570.5,-6 570.5,-12 570.5,-12 570.5,-24 570.5,-24 570.5,-30 564.5,-36 558.5,-36"/>
<text text-anchor="middle" x="511" y="-21.2" font-family="Inter" font-size="11.00">Observability</text>
<text text-anchor="middle" x="511" y="-9.2" font-family="Inter" font-size="11.00">Logs/Metrics/Traces</text>
</g>
<!-- Backend&#45;&gt;Obs -->
<g id="edge5" class="edge">
<title>Backend&#45;&gt;Obs</title>
<path fill="none" stroke="#374151" d="M466.89,-171.97C443.34,-159.79 416.5,-141.21 403,-115.5 386.51,-84.09 420.62,-57.8 454.77,-40.46"/>
<polygon fill="#374151" stroke="#374151" points="456.43,-43.55 463.89,-36.03 453.37,-37.25 456.43,-43.55"/>
<text text-anchor="middle" x="395" y="-107.5" font-family="Inter" font-size="10.00">emit</text>
</g>
<!-- DB&#45;&gt;Obs -->
<!-- Admin -->
<g id="node7" class="node">
<title>Admin</title>
<path fill="#ffffff" stroke="#111827" d="M539.5,-294C539.5,-294 482.5,-294 482.5,-294 476.5,-294 470.5,-288 470.5,-282 470.5,-282 470.5,-270 470.5,-270 470.5,-264 476.5,-258 482.5,-258 482.5,-258 539.5,-258 539.5,-258 545.5,-258 551.5,-264 551.5,-270 551.5,-270 551.5,-282 551.5,-282 551.5,-288 545.5,-294 539.5,-294"/>
<text text-anchor="middle" x="511" y="-279.2" font-family="Inter" font-size="11.00">Admin / Ops</text>
<text text-anchor="middle" x="511" y="-267.2" font-family="Inter" font-size="11.00">Provisioning</text>
</g>
<!-- Obs&#45;&gt;Admin -->
<!-- Admin&#45;&gt;Backend -->
<g id="edge6" class="edge">
<title>Admin&#45;&gt;Backend</title>
<path fill="none" stroke="#374151" d="M511,-257.79C511,-246.39 511,-231.47 511,-218.52"/>
<polygon fill="#374151" stroke="#374151" points="514.5,-218.24 511,-208.24 507.5,-218.24 514.5,-218.24"/>
<text text-anchor="middle" x="502.5" y="-230.5" font-family="Inter" font-size="10.00">manage</text>
</g>
</g>
</svg>
