<?xml version="1.0" encoding="UTF-8" standalone="no"?>
<!DOCTYPE svg PUBLIC "-//W3C//DTD SVG 1.1//EN"
 "http://www.w3.org/Graphics/SVG/1.1/DTD/svg11.dtd">
<!-- Generated by graphviz version 2.43.0 (0)
 -->
<!-- Title: IoTArchitecture Pages: 1 -->
<svg width="666pt" height="51pt"
 viewBox="0.00 0.00 666.00 51.27" xmlns="http://www.w3.org/2000/svg" xmlns:xlink="http://www.w3.org/1999/xlink">
<g id="graph0" class="graph" transform="scale(1 1) rotate(0) translate(4 47.27)">
<title>IoTArchitecture</title>
<polygon fill="white" stroke="transparent" points="-4,4 -4,-47.27 662,-47.27 662,4 -4,4"/>
<!-- Devices -->
<g id="node1" class="node">
<title>Devices</title>
<path fill="none" stroke="black" d="M55,-43.27C55,-43.27 12,-43.27 12,-43.27 6,-43.27 0,-37.27 0,-31.27 0,-31.27 0,-19.27 0,-19.27 0,-13.27 6,-7.27 12,-7.27 12,-7.27 55,-7.27 55,-7.27 61,-7.27 67,-13.27 67,-19.27 67,-19.27 67,-31.27 67,-31.27 67,-37.27 61,-43.27 55,-43.27"/>
<text text-anchor="middle" x="33.5" y="-21.57" font-family="Inter" font-size="14.00">Devices</text>
</g>
<!-- EdgeHub -->
<g id="node2" class="node">
<title>EdgeHub</title>
<path fill="none" stroke="black" d="M237,-43.27C237,-43.27 181,-43.27 181,-43.27 175,-43.27 169,-37.27 169,-31.27 169,-31.27 169,-19.27 169,-19.27 169,-13.27 175,-7.27 181,-7.27 181,-7.27 237,-7.27 237,-7.27 243,-7.27 249,-13.27 249,-19.27 249,-19.27 249,-31.27 249,-31.27 249,-37.27 243,-43.27 237,-43.27"/>
<text text-anchor="middle" x="209" y="-21.57" font-family="Inter" font-size="14.00">Edge Hub</text>
</g>
<!-- Devices&#45;&gt;EdgeHub -->
<g id="edge1" class="edge">
<title>Devices&#45;&gt;EdgeHub</title>
<path fill="none" stroke="black" d="M67.13,-25.27C92.95,-25.27 129.41,-25.27 158.77,-25.27"/>
<polygon fill="black" stroke="black" points="158.83,-28.78 168.83,-25.27 158.83,-21.78 158.83,-28.78"/>
<text text-anchor="middle" x="118" y="-29.07" font-family="Inter" font-size="14.00">telemetry</text>
</g>
<!-- EdgeHub&#45;&gt;Devices -->
<g id="edge4" class="edge">
<title>EdgeHub&#45;&gt;Devices</title>
<path fill="none" stroke="black" d="M168.86,-10.41C162.95,-8.7 156.87,-7.23 151,-6.27 122.05,-1.58 113.86,-1.03 85,-6.27 82.33,-6.76 79.61,-7.38 76.9,-8.1"/>
<polygon fill="black" stroke="black" points="75.71,-4.8 67.16,-11.05 77.74,-11.5 75.71,-4.8"/>
<text text-anchor="middle" x="118" y="-10.07" font-family="Inter" font-size="14.00">actuation</text>
</g>
<!-- Backend -->
<g id="node3" class="node">
<title>Backend</title>
<path fill="none" stroke="black" d="M459,-43.27C459,-43.27 410,-43.27 410,-43.27 404,-43.27 398,-37.27 398,-31.27 398,-31.27 398,-19.27 398,-19.27 398,-13.27 404,-7.27 410,-7.27 410,-7.27 459,-7.27 459,-7.27 465,-7.27 471,-13.27 471,-19.27 471,-19.27 471,-31.27 471,-31.27 471,-37.27 465,-43.27 459,-43.27"/>
<text text-anchor="middle" x="434.5" y="-21.57" font-family="Inter" font-size="14.00">Backend</text>
</g>
<!-- EdgeHub&#45;&gt;Backend -->
<g id="edge2" class="edge">
<title>EdgeHub&#45;&gt;Backend</title>
<path fill="none" stroke="black" d="M249.19,-25.27C287.77,-25.27 346.68,-25.27 387.47,-25.27"/>
<polygon fill="black" stroke="black" points="387.68,-28.78 397.68,-25.27 387.68,-21.78 387.68,-28.78"/>
<text text-anchor="middle" x="323.5" y="-29.07" font-family="Inter" font-size="14.00">publish / forward</text>
</g>
<!-- Backend&#45;&gt;EdgeHub -->
<g id="edge3" class="edge">
<title>Backend&#45;&gt;EdgeHub</title>
<path fill="none" stroke="black" d="M397.98,-10.77C392.06,-8.91 385.93,-7.3 380,-6.27 330.51,2.25 316.57,1.77 267,-6.27 264.34,-6.71 261.64,-7.24 258.93,-7.86"/>
<polygon fill="black" stroke="black" points="257.94,-4.5 249.14,-10.41 259.7,-11.28 257.94,-4.5"/>
<text text-anchor="middle" x="323.5" y="-10.07" font-family="Inter" font-size="14.00">commands</text>
</g>
<!-- UI -->
<g id="node4" class="node">
<title>UI</title>
<path fill="none" stroke="black" d="M646,-43.27C646,-43.27 548,-43.27 548,-43.27 542,-43.27 536,-37.27 536,-31.27 536,-31.27 536,-19.27 536,-19.27 536,-13.27 542,-7.27 548,-7.27 548,-7.27 646,-7.27 646,-7.27 652,-7.27 658,-13.27 658,-19.27 658,-19.27 658,-31.27 658,-31.27 658,-37.27 652,-43.27 646,-43.27"/>
<text text-anchor="middle" x="597" y="-21.57" font-family="Inter" font-size="14.00">Web / Mobile UI</text>
</g>
<!-- Backend&#45;&gt;UI -->
<g id="edge5" class="edge">
<title>Backend&#45;&gt;UI</title>
<path fill="none" stroke="black" d="M471.12,-25.27C487.25,-25.27 506.9,-25.27 525.8,-25.27"/>
<polygon fill="black" stroke="black" points="525.89,-28.78 535.89,-25.27 525.89,-21.78 525.89,-28.78"/>
<text text-anchor="middle" x="503.5" y="-29.07" font-family="Inter" font-size="14.00">APIs</text>
</g>
</g>
</svg>
