<svg xmlns:xlink="http://www.w3.org/1999/xlink" xmlns="http://www.w3.org/2000/svg" width="1000.0" height="600.553615661">
  <desc>Created by CircuitLab https://www.circuitlab.com/</desc><g transform="matrix(1.62531425077,0,0,1.62531425077,-3500.92689617,-1904.05564478)">
    <path style="stroke-linecap: round; stroke-miterlimit: 6;" fill="none" stroke="#000000" d="M0,50L12.5,50" stroke-width="2" stroke-linecap="round" stroke-miterlimit="6" transform="translate(2400,1325)"/>
    <path style="stroke-linecap: round; stroke-miterlimit: 6;" fill="none" stroke="#000000" d="M12.5,87.5L12.5,12.5" stroke-width="2" stroke-linecap="round" stroke-miterlimit="6" transform="translate(2400,1325)"/>
    <path style="stroke-linecap: round; stroke-miterlimit: 6;" fill="none" stroke="#000000" d="M12.5,32.81249L50,12.5" stroke-width="2" stroke-linecap="round" stroke-miterlimit="6" transform="translate(2400,1325)"/>
    <path style="stroke-linecap: round; stroke-miterlimit: 6;" fill="none" stroke="#000000" d="M50,0L50,12.5" stroke-width="2" stroke-linecap="round" stroke-miterlimit="6" transform="translate(2400,1325)"/>
    <path style="stroke-linecap: round; stroke-miterlimit: 6;" fill="none" stroke="#000000" d="M12.5,67.18752L50,87.5" stroke-width="2" stroke-linecap="round" stroke-miterlimit="6" transform="translate(2400,1325)"/>
    <path style="stroke-linecap: round; stroke-miterlimit: 6;" fill="none" stroke="#000000" d="M50,100L50,87.5" stroke-width="2" stroke-linecap="round" stroke-miterlimit="6" transform="translate(2400,1325)"/>
    <path fill="#000000" stroke="none" d="M27.931232,81.97502C36.649984,82.49792,38.679151,83.67082,50,87.5C41.0229,79.61042,38.993733,78.43962,34.181237,71.15002C33.189565,75.98962,31.627079,78.69792,27.931232,81.97502" transform="translate(2400,1325)"/>
    <text style="font-family: Arial; font-size: 16px; font-weight: bold; text-anchor: start;" x="0" y="0" text-anchor="start" stroke="none" fill="#000000" transform="translate(2450,1375)">
      <tspan dy="-2.3999999999999995">Q1</tspan>
      <tspan dy="19.2" x="0">mps2222a</tspan>
    </text>
    <path style="stroke-linecap: round; stroke-miterlimit: 6;" fill="none" stroke="#000000" d="M25,21.87499L25,0" stroke-width="2" stroke-linecap="round" stroke-miterlimit="6" transform="matrix(0,1,-1,0,2350,1350)"/>
    <path style="stroke-linecap: round; stroke-miterlimit: 6;" fill="none" stroke="#000000" d="M25,78.12502L25,100" stroke-width="2" stroke-linecap="round" stroke-miterlimit="6" transform="matrix(0,1,-1,0,2350,1350)"/>
    <path style="stroke-linecap: round; stroke-miterlimit: 6;" fill="none" stroke="#000000" d="M25,21.87499L14.062504,26.56249L35.937495,35.93748L14.062504,45.31248L35.937495,54.68752L14.062504,64.06252L35.937495,73.43752L25,78.12502" stroke-width="2" stroke-linecap="round" stroke-miterlimit="6" transform="matrix(0,1,-1,0,2350,1350)"/>
    <text style="font-family: Arial; font-size: 16px; font-weight: bold; text-anchor: middle;" x="0" y="0" text-anchor="middle" stroke="none" fill="#000000" transform="translate(2300,1412.95)">
      <tspan dy="-2.3999999999999995">R1</tspan>
      <tspan dy="19.2" x="0">2 kΩ</tspan>
    </text>
    <path style="stroke-linecap: round;" fill="none" stroke="#000000" d="M 2350 1375 L 2400 1375" stroke-width="2" stroke-linecap="round" class="cl_wire"/>
    <path style="stroke-linecap: round;" fill="none" stroke="#000000" d="M 2225 1375 L 2250 1375" stroke-width="2" stroke-linecap="round" class="cl_wire"/>
    <path style="stroke-linecap: round;" fill="none" stroke="#000000" d="M 2175 1500 L 2700 1500" stroke-width="2" stroke-linecap="round" class="cl_wire"/>
    <path style="stroke-linecap: round;" fill="none" stroke="#000000" d="M 2450 1425 L 2450 1500" stroke-width="2" stroke-linecap="round" class="cl_wire"/>
    <path style="stroke-linecap: round; stroke-miterlimit: 5.9000001;" fill="#ffffff" stroke="#000000" d="M45,25C45,13.95448,36.044999,5,25,5C13.954999,5,5,13.95448,5,25C5,36.04552,13.954999,45,25,45C36.044999,45,45,36.04552,45,25" stroke-width="2" stroke-linecap="round" stroke-miterlimit="5.9000001" transform="translate(2150,1350)"/>
    <path style="stroke-linecap: round; stroke-miterlimit: 5.9000001;" fill="none" stroke="#000000" d="M75,25L45,25" stroke-width="2" stroke-linecap="round" stroke-miterlimit="5.9000001" transform="translate(2150,1350)"/>
    <path fill="#000000" stroke="none" d="M25.697281,35.055664L21.992203,35.055664L24.589859,21.055664L20.584,23.010742L21.130875,19.387695C24.375659,17.947608,26.5905,16.46649,27.775406,14.944336L29.416031,14.944336L25.697281,35.055664" transform="translate(2150,1350)"/>
    <text style="font-family: Arial; font-size: 16px; font-weight: bold; text-anchor: start;" x="0" y="0" text-anchor="start" stroke="none" fill="#000000" transform="translate(2731.25,1375)">
      <tspan dy="-2.3999999999999995">BAT1</tspan>
      <tspan dy="19.2" x="0">5 V</tspan>
    </text>
    <path style="stroke-linecap: round; stroke-miterlimit: 4;" fill="none" stroke="#000000" d="M50,25L0,25" stroke-width="2" stroke-linecap="round" stroke-miterlimit="4" transform="translate(2675,1325)"/>
    <path style="stroke-linecap: round; stroke-miterlimit: 4;" fill="none" stroke="#000000" d="M25,24.5L25,0" stroke-width="2" stroke-linecap="round" stroke-miterlimit="4" transform="translate(2675,1325)"/>
    <path style="stroke-linecap: round; stroke-miterlimit: 4;" fill="none" stroke="#000000" d="M37.5,35L12.5,35" stroke-width="2" stroke-linecap="round" stroke-miterlimit="4" transform="translate(2675,1325)"/>
    <path style="stroke-linecap: round; stroke-miterlimit: 4;" fill="none" stroke="#000000" d="M37.5,75L12.5,75" stroke-width="2" stroke-linecap="round" stroke-miterlimit="4" transform="translate(2675,1325)"/>
    <path style="stroke-linecap: round; stroke-miterlimit: 4;" fill="none" stroke="#000000" d="M50,65L0,65" stroke-width="2" stroke-linecap="round" stroke-miterlimit="4" transform="translate(2675,1325)"/>
    <path style="stroke-linecap: round; stroke-miterlimit: 4;" fill="none" stroke="#000000" d="M25,75.5L25,100" stroke-width="2" stroke-linecap="round" stroke-miterlimit="4" transform="translate(2675,1325)"/>
    <path style="stroke-linecap: round; stroke-miterlimit: 4;" fill="none" stroke="#000000" d="M37.5,55L12.5,55" stroke-width="2" stroke-linecap="round" stroke-miterlimit="4" transform="translate(2675,1325)"/>
    <path style="stroke-linecap: round; stroke-miterlimit: 4;" fill="none" stroke="#000000" d="M50,45L0,45" stroke-width="2" stroke-linecap="round" stroke-miterlimit="4" transform="translate(2675,1325)"/>
    <path fill="#000000" stroke="none" d="M12.239297,9.99656L10.99166,9.99656L10.99166,15.41811L5.6154788,15.41811L5.6154788,16.66575L10.99166,16.66575L10.99166,22.0873L12.239297,22.0873L12.239297,16.66575L17.615479,16.66575L17.615479,15.41811L12.239297,15.41811L12.239297,9.99656" transform="translate(2675,1325)"/>
    <path style="stroke-linecap: round;" fill="none" stroke="#000000" d="M 2700 1425 L 2700 1500" stroke-width="2" stroke-linecap="round" class="cl_wire"/>
    <path style="stroke-linecap: round;" fill="none" stroke="#000000" d="M 2700 1175 L 2700 1325" stroke-width="2" stroke-linecap="round" class="cl_wire"/>
    <path style="stroke-linecap: round; stroke-miterlimit: 6;" fill="none" stroke="#000000" d="M25,64.06172C40.625333,67.18682,40.625333,79.68702,25,82.81202" stroke-width="2" stroke-linecap="round" stroke-miterlimit="6" transform="translate(2425,1200)"/>
    <path style="stroke-linecap: round; stroke-miterlimit: 6;" fill="none" stroke="#000000" d="M25,64.06172C9.3746668,60.93652,9.3746668,70.31182,25,67.18682" stroke-width="2" stroke-linecap="round" stroke-miterlimit="6" transform="translate(2425,1200)"/>
    <path style="stroke-linecap: round; stroke-miterlimit: 6;" fill="none" stroke="#000000" d="M25,17.18572C40.625333,20.31078,40.625333,32.81104,25,35.93611" stroke-width="2" stroke-linecap="round" stroke-miterlimit="6" transform="translate(2425,1200)"/>
    <path style="stroke-linecap: round; stroke-miterlimit: 6;" fill="none" stroke="#000000" d="M25,32.81104C40.625333,35.93611,40.625333,48.43642,25,51.56152" stroke-width="2" stroke-linecap="round" stroke-miterlimit="6" transform="translate(2425,1200)"/>
    <path style="stroke-linecap: round; stroke-miterlimit: 6;" fill="none" stroke="#000000" d="M25,48.43642C40.625333,51.56152,40.625333,64.06172,25,67.18682" stroke-width="2" stroke-linecap="round" stroke-miterlimit="6" transform="translate(2425,1200)"/>
    <path style="stroke-linecap: round; stroke-miterlimit: 6;" fill="none" stroke="#000000" d="M25,32.81104C9.3746668,29.68599,9.3746668,39.06117,25,35.93611" stroke-width="2" stroke-linecap="round" stroke-miterlimit="6" transform="translate(2425,1200)"/>
    <path style="stroke-linecap: round; stroke-miterlimit: 6;" fill="none" stroke="#000000" d="M25,48.43642C9.3746668,45.31131,9.3746668,54.68652,25,51.56152" stroke-width="2" stroke-linecap="round" stroke-miterlimit="6" transform="translate(2425,1200)"/>
    <path style="stroke-linecap: round; stroke-miterlimit: 6;" fill="none" stroke="#000000" d="M25,100L25,82.81202" stroke-width="2" stroke-linecap="round" stroke-miterlimit="6" transform="translate(2425,1200)"/>
    <path style="stroke-linecap: round; stroke-miterlimit: 6;" fill="none" stroke="#000000" d="M25,0L25,17.18572" stroke-width="2" stroke-linecap="round" stroke-miterlimit="6" transform="translate(2425,1200)"/>
    <text style="font-family: Arial; font-size: 16px; font-weight: bold; text-anchor: start;" x="0" y="0" text-anchor="start" stroke="none" fill="#000000" transform="translate(2468.75,1250)">
      <tspan dy="-2.3999999999999995">L1</tspan>
      <tspan dy="19.2" x="0">22 H</tspan>
    </text>
    <path style="stroke-linecap: round; stroke-miterlimit: 6;" fill="none" stroke="#000000" d="M25,20L25,0" stroke-width="2" stroke-linecap="round" stroke-miterlimit="6" transform="translate(2150,1500)"/>
    <path style="stroke-linecap: round; stroke-linejoin: round; stroke-miterlimit: 6;" fill="#ffffff" stroke="#000000" d="M5,20L25,40L45,20Z" stroke-width="2" stroke-linecap="round" stroke-linejoin="round" stroke-miterlimit="6" transform="translate(2150,1500)"/>
    <path style="stroke-linecap: round;" fill="none" stroke="#000000" d="M 2450 1175 L 2450 1200" stroke-width="2" stroke-linecap="round" class="cl_wire"/>
    <path style="stroke-linecap: round;" fill="none" stroke="#000000" d="M 2600 1175 L 2600 1200" stroke-width="2" stroke-linecap="round" class="cl_wire"/>
    <path style="stroke-linecap: round;" fill="none" stroke="#000000" d="M 2600 1275 L 2600 1300" stroke-width="2" stroke-linecap="round" class="cl_wire"/>
    <path style="stroke-linecap: round;" fill="none" stroke="#000000" d="M 2450 1300 L 2600 1300" stroke-width="2" stroke-linecap="round" class="cl_wire"/>
    <path style="stroke-linecap: round;" fill="none" stroke="#000000" d="M 2450 1300 L 2450 1325" stroke-width="2" stroke-linecap="round" class="cl_wire"/>
    <path fill="#000000" stroke="none" d="M10.93749,25L25,50L39.06251,25" transform="matrix(1,0,0,-1,2575,1275)"/>
    <path style="stroke-linecap: round; stroke-miterlimit: 6;" fill="none" stroke="#000000" d="M25,25L25,0" stroke-width="2" stroke-linecap="round" stroke-miterlimit="6" transform="matrix(1,0,0,-1,2575,1275)"/>
    <path style="stroke-linecap: round; stroke-miterlimit: 6;" fill="none" stroke="#000000" d="M25,50L25,75" stroke-width="2" stroke-linecap="round" stroke-miterlimit="6" transform="matrix(1,0,0,-1,2575,1275)"/>
    <path style="stroke-linecap: round; stroke-miterlimit: 6;" fill="none" stroke="#000000" d="M10.93749,50L39.06251,50" stroke-width="2" stroke-linecap="round" stroke-miterlimit="6" transform="matrix(1,0,0,-1,2575,1275)"/>
    <text style="font-family: Arial; font-size: 16px; font-weight: bold; text-anchor: end;" x="0" y="0" text-anchor="end" stroke="none" fill="#000000" transform="translate(2581.25,1237.5)">
      <tspan dy="-2.3999999999999995">1N4001</tspan>
      <tspan dy="19.2" x="0">0 V</tspan>
    </text>
    <path style="stroke-linecap: round;" fill="none" stroke="#000000" d="M 2450 1175 L 2700 1175" stroke-width="2" stroke-linecap="round" class="cl_wire"/>
    <circle cx="2450" cy="1300" r="3" fill="#000000" stroke="#000000"/>
    <circle cx="2450" cy="1500" r="3" fill="#000000" stroke="#000000"/>
    <circle cx="2600" cy="1175" r="3" fill="#000000" stroke="#000000"/>
  </g>
</svg>
